<svg width="1280" height="1269" viewBox="0 0 1280 1269" fill="none" xmlns="http://www.w3.org/2000/svg">
<path fill-rule="evenodd" clip-rule="evenodd" d="M595.493 52.9917C595.497 52.9816 595.342 53.0922 595.018 53.3545C595.328 53.1332 595.49 53.0018 595.493 52.9917ZM561.695 86.8475C569.917 104.389 580.697 127.948 595.158 159.785C595.163 159.794 595.167 159.804 595.171 159.814L595.385 160.286C598.3 166.734 601.799 174.472 605.234 180.257L605.247 180.28C606.8 182.896 611.967 191.597 621.546 199.12C635.297 209.918 650.64 212.918 662.953 212.332L662.953 212.325C667.065 212.129 671.36 211.604 672.626 211.448C672.752 211.433 672.848 211.421 672.911 211.414C676.156 211.032 680.097 210.536 683.978 210.033C691.129 209.166 694.861 208.912 714.174 209.285C752.136 210.217 772.875 212.892 796.524 218.802C846.34 231.278 894.755 254.072 929.262 280.22C950.098 296.042 985.885 331.286 1006.5 357.123L1006.57 357.204L1006.63 357.285C1029.26 385.447 1056.81 431.59 1078.13 478.73L1078.14 478.751C1137.44 609.694 1193.14 844.249 1212.15 1050.99L1212.15 1051.01L1212.15 1051.02C1217.6 1109.9 1219.3 1145.49 1219.4 1202.1V1202.11L1219.4 1203.83C1219.41 1205.32 1219.41 1206.77 1219.41 1208.16L870.304 1208.6C682.545 1208.9 558.863 1208.9 480.856 1208.55C446.471 1208.4 421.167 1208.18 403.248 1207.89C403.155 1205.12 403.173 1202.37 403.311 1199.76C405.287 1164.5 416.243 1131.55 432.259 1107.48C444.171 1089.78 455.182 1076.77 514.639 1016.71C548.77 982.236 570.997 959.244 587.248 939.018C604.902 917.045 615.069 898.921 626.717 875.63C648.327 832.741 660.358 791.841 665.536 744.594C665.537 744.591 665.537 744.588 665.538 744.584C666.928 732.001 668.016 713.041 668.583 697.951C668.871 690.267 669.058 682.727 669.05 676.779C669.046 674.013 669.003 670.493 668.782 667.153C668.697 665.864 668.456 662.349 667.67 658.25C667.378 656.728 666.336 651.289 663.526 644.92C662.191 641.894 658.892 634.973 652.3 627.956C645.352 620.559 630.588 609 608.5 609C599.617 609 592.753 611.069 591.419 611.471C591.369 611.486 591.326 611.499 591.292 611.509C588.89 612.223 587.019 612.943 586.077 613.317C584.109 614.098 582.532 614.84 581.795 615.191C580.143 615.979 578.597 616.789 577.525 617.36C575.211 618.593 572.467 620.125 569.661 621.724C563.969 624.969 556.711 629.24 549.398 633.69C531.935 644.237 508.072 657.295 467.777 678.289C423.306 701.422 403.86 712.153 383.768 725.544C346.619 750.195 321.321 777.083 297.448 816.303L297.305 816.539L297.163 816.776C293.316 823.229 284.055 839.986 276.618 853.769C259.494 885.413 256.787 890.139 248.962 902.042L248.948 902.064C244.284 909.166 235.996 918.019 227.669 924.273C223.511 927.338 217.673 930.624 211.938 933.003C210.912 933.428 209.982 933.786 209.157 934.084C208.923 934 208.684 933.913 208.441 933.822C207.558 933.492 206.703 933.144 205.905 932.793C203.617 928.464 201.059 924.279 198.519 920.61C197.206 918.713 195.507 916.388 193.499 913.988C193.47 913.953 193.438 913.915 193.403 913.872C192.251 912.491 187.548 906.85 180.352 901.868L179.92 901.569L179.482 901.277C174.033 897.644 169.049 895.656 167.867 895.185L167.767 895.145C165.768 894.345 163.994 893.742 162.782 893.347C160.294 892.538 157.794 891.839 155.659 891.279C151.282 890.13 146.151 888.964 141.031 887.98C138.732 887.537 135.307 886.756 131.686 885.815C127.985 884.854 125.478 884.09 124.62 883.798C99.4813 875.009 79.1444 856.471 68.544 833.584L68.5199 833.532L68.4956 833.48C55.7592 806.118 54.5819 770.461 86.9339 707.686L86.9417 707.671L86.9495 707.656C97.7612 686.648 109.131 667.71 140.261 619.77C154.587 597.874 169.994 573.553 174.822 565.582L174.868 565.505L174.915 565.428C192.053 536.937 207.511 504.753 214.715 479.4L214.771 479.203L214.826 479.005C220.587 458.193 221 432.899 221 389.2V361.164L222.266 358.633C223.717 355.729 225.627 352.217 227.478 349.031C228.386 347.468 229.171 346.173 229.769 345.222C229.781 345.202 229.793 345.183 229.805 345.164C230.063 344.867 230.4 344.483 230.826 344.002C232.439 342.18 234.659 339.736 237.371 336.807C242.779 330.967 249.641 323.75 256.556 316.693L256.598 316.65C290.543 281.938 308.588 262.795 319.142 247.346L319.24 247.202L336.619 221.445L333.42 179.651L333.414 179.583C330.841 146.952 328.654 118.729 327.005 96.8524C372.656 124.12 415.68 149.576 424.728 154.542L470.209 179.809L511.62 138.829C511.65 138.799 511.681 138.769 511.711 138.739C518.029 132.529 538.127 111.577 555.932 92.8961L555.952 92.8759L555.971 92.8555C557.974 90.7504 559.88 88.7495 561.695 86.8475ZM469.6 95.9999L460 105.5L453.7 102C446.5 98.0999 399 69.9999 348.5 39.7999C308.1 15.6 293.1 7.8999 286.5 7.79993C280.5 7.69995 269.2 13.2999 266.7 17.6C263.7 22.9 262.8 36.2999 264 56.9999C265 73.3999 268.6 120.9 273.6 184.3L275.2 205.2L269.6 213.5C262.7 223.6 249.1 238.5 213.7 274.7C199.1 289.6 184.7 305.2 181.7 309.2C178.7 313.3 172.8 323.4 168.6 331.8L161 347V389.2C161 435.9 160.1 451.8 157 463C151.8 481.3 139.2 508.4 123.5 534.5C119.2 541.6 104.2 565.3 90 587C58.7 635.2 45.9 656.3 33.6 680.2C-3.29999 751.8 -9.49999 808.1 14.1 858.8C31.7 896.8 64.8 926.5 105 940.5C110.8 942.5 121.9 945.4 129.7 946.9C137.5 948.4 145 950.4 146.2 951.2C147.5 952.1 150.6 956.5 153 961.1C159.5 973.3 167.3 980.9 179.3 986.6C189.9 991.6 202 995 208.9 995C222.5 995 246.5 985 263.5 972.4C277 962.3 290.3 948.4 299.1 935C308.5 920.7 312.3 913.9 329.4 882.3C336.9 868.4 345.6 852.7 348.7 847.5C368.3 815.3 387.6 795 417 775.5C434.1 764.1 450.9 754.7 495.5 731.5C516.861 720.371 533.993 711.273 548.232 703.458C551.109 701.879 553.867 700.352 556.519 698.872C565.627 693.786 573.472 689.246 580.5 685C594.3 676.6 607.7 669 608.5 669C609.304 669 609.16 682.833 608.5 698.876C608.095 708.716 607.496 719.389 606.802 728.21C606.794 728.305 606.786 728.401 606.779 728.496C606.766 728.657 606.753 728.816 606.741 728.975C606.472 732.318 606.19 735.377 605.9 738C605.833 738.614 605.764 739.227 605.694 739.839C601.192 779.24 591.219 812.758 573.1 848.7C551.7 891.5 541.2 904.6 472 974.5C413 1034.1 398 1050.9 382.4 1074.1C359.8 1108 345.9 1151.6 343.4 1196.5C342.3 1217 345.6 1240 351.5 1252.4C354.6 1259 360.7 1265.5 364.6 1266.4C375 1268.6 494.9 1269.2 870.4 1268.6L1267.4 1268.1L1271.7 1263.8C1273.33 1262.19 1274.61 1260.96 1275.63 1259.54C1279.56 1254.04 1279.48 1245.68 1279.4 1202C1279.3 1143.5 1277.5 1106.1 1271.9 1045.5C1252.5 834.5 1195.7 592.9 1132.8 454C1110 403.6 1080 352.8 1053.4 319.7C1030.1 290.5 990.8 251.6 965.5 232.4C923.8 200.8 867.8 174.8 811.1 160.6C781.9 153.3 756.5 150.3 715.5 149.3C694.9 148.9 688 149.1 676.5 150.5C668.8 151.5 661.4 152.4 660.1 152.4C658 152.5 656.9 150.7 649.8 135C598.2 21.3999 590.4 6.29993 580.7 1.69995C577 -0.100098 572.7 -0.300171 567.4 0.999878C559.9 2.69983 551.6 10.3999 512.5 51.4999C494.2 70.6998 474.9 90.7999 469.6 95.9999ZM205.23 935.267C205.231 935.268 205.291 935.258 205.411 935.232C205.291 935.252 205.229 935.265 205.23 935.267Z" fill="black"/>
</svg>
